# xmcd
# 
# Track frame offsets:
#     187
#     44104
#     75134
#     101072
#     125077
# 
# Disc length: 2257
# 
# Revision: 1
# Processed by: cddbd v1.5.2PL0 Copyright (c) Steve Scherf et al.
# Submitted via: BonkEnc v1.0.8
# 
DISCID=3c08cf05
DTITLE=Johnny "Hammond" Smith - What's Goin' On
DYEAR=1971
DGENRE=Soul Jazz
TTITLE0=What's Goin' On
TTITLE1=Smokin' Kool
TTITLE2=L&J
TTITLE3=I'll Be There
TTITLE4=Between The Sheets
EXTD=YEAR: 1971
EXTT0=
EXTT1=
EXTT2=
EXTT3=
EXTT4=
PLAYORDER=
